<mxfile host="app.diagrams.net" modified="2024-01-24T08:54:17.266Z" agent="Mozilla/5.0 (Windows NT 10.0; Win64; x64) AppleWebKit/537.36 (KHTML, like Gecko) Chrome/120.0.0.0 Safari/537.36 Edg/120.0.0.0" version="22.1.21" etag="cP7wrw3I7FDbOuAINVEu" type="github">
  <diagram name="Page-1" id="dFL46ctN6tEp03nvOxA6">
    <mxGraphModel>
      <root>
        <mxCell id="0" />
        <mxCell id="1" parent="0" />
      </root>
    </mxGraphModel>
  </diagram>
</mxfile>
